<?xml version="1.0" encoding="UTF-8"?>
<svg width="35px" height="24px" viewBox="0 0 35 24" version="1.1" xmlns="http://www.w3.org/2000/svg" xmlns:xlink="http://www.w3.org/1999/xlink">
    <!-- Generator: Sketch 53.2 (72643) - https://sketchapp.com -->
    <title>noun_Running_1473810</title>
    <desc>Created with Sketch.</desc>
    <g id="Mobile" stroke="none" stroke-width="1" fill="none" fill-rule="evenodd">
        <g id="Home" transform="translate(-170.000000, -40.000000)" fill="#FFFFFF" fill-rule="nonzero">
            <g id="Logo" transform="translate(20.000000, 40.000000)">
                <g id="noun_Running_1473810" transform="translate(150.197508, 0.000000)">
                    <g id="Group">
                        <path d="M11.7819502,20.6181818 C11.7819502,20.2909091 11.5617268,20.0727273 11.2313918,20.0727273 L1.65167526,20.0727273 C1.32134021,20.0727273 1.10111684,20.2909091 1.10111684,20.6181818 C1.10111684,20.9454545 1.32134021,21.1636364 1.65167526,21.1636364 L11.2313918,21.1636364 C11.5617268,21.1636364 11.7819502,20.8909091 11.7819502,20.6181818 Z" id="Path"></path>
                        <path d="M3.85390895,22.8 L2.75279211,22.8 C2.42245705,22.8 2.20223368,23.0181818 2.20223368,23.3454545 C2.20223368,23.6727273 2.42245705,23.8909091 2.75279211,23.8909091 L3.85390895,23.8909091 C4.184244,23.8909091 4.40446737,23.6727273 4.40446737,23.3454545 C4.40446737,23.0181818 4.184244,22.8 3.85390895,22.8 Z" id="Path"></path>
                        <path d="M6.44153353,17.8909091 C6.44153353,17.5636364 6.22131016,17.3454545 5.8909751,17.3454545 L0.550558421,17.3454545 C0.220223368,17.3454545 0,17.5636364 0,17.8909091 C0,18.2181818 0.220223368,18.4363636 0.550558421,18.4363636 L5.8909751,18.4363636 C6.22131016,18.4363636 6.44153353,18.1636364 6.44153353,17.8909091 Z" id="Path"></path>
                        <path d="M33.8042871,18.8181818 C33.6391195,18.4909091 33.3087845,18.2181818 32.9784494,18.0545455 L28.7942054,16.4727273 L28.7942054,16.4727273 L28.7942054,16.4727273 L27.0874743,15.8727273 C26.5919717,15.6545455 26.151525,15.3272727 25.8762458,14.8909091 L24.4447939,12.5454545 C24.7200731,12.4909091 24.8852406,12.2727273 24.8852406,12 C24.8852406,11.6727273 24.6650173,11.4545455 24.3346822,11.4545455 L23.7841238,11.4545455 L23.1234537,10.3636364 C23.3987329,10.3090909 23.5639004,10.0909091 23.5639004,9.81818182 C23.5639004,9.49090909 23.3436771,9.27272727 23.013342,9.27272727 L22.4627836,9.27272727 L21.9122252,8.4 C22.1324485,8.34545455 22.2976161,8.12727273 22.2976161,7.90909091 C22.2976161,7.58181818 22.0773927,7.36363636 21.7470576,7.36363636 L21.2515551,7.36363636 L20.5358291,6.21818182 C20.5358291,6.21818182 20.5358291,6.16363636 20.4807733,6.16363636 C19.8201032,5.4 18.9392097,5.01818182 18.0032604,5.12727273 C17.1774227,5.23636364 16.5167526,5.72727273 16.2414734,6.32727273 C16.1864176,6.49090909 16.1864176,6.65454545 16.2965293,6.81818182 L20.8661642,14.5636364 C20.92122,14.6727273 21.0313317,14.7818182 21.1414434,14.7818182 L26.7571393,16.9090909 L26.8121951,16.9090909 L28.4638704,17.5090909 L28.4638704,17.5090909 L28.4638704,17.5090909 L28.4638704,17.5090909 L28.4638704,17.5090909 L28.4638704,17.5090909 L32.5930585,19.0909091 C32.7031702,19.1454545 32.8132819,19.2 32.8683377,19.3636364 C33.0885611,19.8 33.0885611,20.2363636 32.8132819,20.6727273 L23.8391796,20.6727273 C23.2886212,20.6727273 22.7380628,20.5090909 22.2976161,20.1818182 L6.9370361,8.89090909 C6.9370361,8.89090909 7.15725947,8.78181818 7.43253868,8.4 C7.70781789,8.01818182 7.81792958,7.52727273 7.81792958,7.03636364 L7.322427,2.45454545 L7.9830971,1.41818182 C8.14826463,1.2 8.47859968,1.14545455 8.69882305,1.30909091 C8.86399058,1.47272727 9.52466068,2.01818182 11.1212801,4.58181818 C11.9471177,5.78181818 13.2684579,6.65454545 14.7549657,6.87272727 C15.0302449,6.92727273 15.3605799,6.70909091 15.4156358,6.43636364 C15.4706916,6.16363636 15.2504683,5.83636364 14.9751891,5.78181818 C13.8190164,5.56363636 12.7178995,4.90909091 12.0572294,3.92727273 C10.1302749,0.981818182 9.57971653,0.545454545 9.35949316,0.381818182 C8.64376721,-0.109090909 7.65276205,0.0545454545 7.10220363,0.763636364 L3.74379726,6.05454545 C3.52357389,6.38181818 3.46851805,6.76363636 3.52357389,7.14545455 C3.19323884,7.25454545 2.86290379,7.41818182 2.69773626,7.74545455 L1.81684279,9.10909091 C1.32134021,9.81818182 1.54156358,10.8 2.25728953,11.2909091 C2.75279211,11.6727273 3.79885311,12.3272727 5.34041668,13.3090909 C5.45052837,13.3636364 5.56064005,13.4181818 5.61569589,13.4181818 C5.78086342,13.4181818 5.94603095,13.3090909 6.05614263,13.1454545 C6.22131016,12.8727273 6.16625432,12.5454545 5.8909751,12.3818182 C4.40446737,11.4 3.35840637,10.7454545 2.86290379,10.3636364 C2.64268042,10.2 2.58762458,9.92727273 2.75279211,9.65454545 L3.57862974,8.4 C3.74379726,8.18181818 4.07413232,8.12727273 4.29435568,8.29090909 L4.29435568,8.29090909 L21.5818901,21.0545455 C22.2425602,21.5454545 23.013342,21.7636364 23.7841238,21.7636364 L31.38183,21.7636364 C30.2256573,22.3090909 28.6290379,22.8 27.2526418,22.8 L27.2526418,22.8 L25.3256874,22.8 L23.7290679,22.8 L23.7290679,22.8 C22.7931186,22.8 21.8571693,22.5272727 21.0863875,22.0363636 C17.8931487,20.0181818 11.9471177,16.2545455 7.59770621,13.4727273 C7.322427,13.3090909 6.99209195,13.3636364 6.82692442,13.6363636 C6.66175689,13.9090909 6.71681274,14.2363636 6.99209195,14.4 C11.2313918,17.1272727 17.0122552,20.7818182 20.2605499,22.8545455 L6.05614263,22.8545455 C5.72580758,22.8545455 5.50558421,23.0727273 5.50558421,23.4 C5.50558421,23.7272727 5.72580758,23.9454545 6.05614263,23.9454545 L23.7290679,23.9454545 L23.7290679,23.9454545 L25.3256874,23.9454545 L27.197586,23.9454545 L27.197586,23.9454545 C29.4548755,23.9454545 32.7031702,22.7454545 33.5290078,21.6 C34.2447338,20.6181818 34.2997896,19.6909091 33.8042871,18.8181818 Z M21.6369459,13.9090909 L17.3425903,6.65454545 C17.5077578,6.49090909 17.783037,6.32727273 18.1133721,6.27272727 C18.4437071,6.21818182 19.0493214,6.27272727 19.5998798,6.87272727 L19.9302148,7.41818182 L19.4347123,7.41818182 C19.1043772,7.41818182 18.8841538,7.63636364 18.8841538,7.96363636 C18.8841538,8.29090909 19.1043772,8.50909091 19.4347123,8.50909091 L20.5908849,8.50909091 L21.1414434,9.38181818 L20.7009966,9.38181818 C20.3706616,9.38181818 20.1504382,9.6 20.1504382,9.92727273 C20.1504382,10.2545455 20.3706616,10.4727273 20.7009966,10.4727273 L21.8021135,10.4727273 L22.4627836,11.5090909 L22.0223368,11.5090909 C21.6920018,11.5090909 21.4717784,11.7272727 21.4717784,12.0545455 C21.4717784,12.3818182 21.6920018,12.6 22.0223368,12.6 L23.1234537,12.6 L24.6650173,15 L21.6369459,13.9090909 Z M4.67974658,6.65454545 L6.38647768,3.98181818 L6.71681274,7.14545455 C6.71681274,7.36363636 6.66175689,7.58181818 6.55164521,7.74545455 C6.44153353,7.90909091 6.22131016,8.34545455 5.72580758,7.96363636 C5.72580758,7.96363636 5.45052837,7.8 4.95502579,7.41818182 C4.62469074,7.14545455 4.56963489,6.87272727 4.67974658,6.65454545 Z" id="Shape"></path>
                    </g>
                </g>
            </g>
        </g>
    </g>
</svg>